<mxfile host="app.diagrams.net" modified="2020-09-12T03:11:26.306Z" agent="5.0 (Macintosh; Intel Mac OS X 10_15_6) AppleWebKit/605.1.15 (KHTML, like Gecko) Version/13.1.2 Safari/605.1.15" etag="zorhHus2i6MJN0LgANca" version="13.6.9" type="github" pages="2">
  <diagram id="3USvOaj4YyrCHpzvO7Jd" name="Page-1">
    <mxGraphModel dx="786" dy="562" grid="0" gridSize="10" guides="1" tooltips="1" connect="1" arrows="1" fold="1" page="0" pageScale="1" pageWidth="827" pageHeight="1169" math="0" shadow="0">
      <root>
        <mxCell id="0" />
        <mxCell id="1" parent="0" />
        <mxCell id="UBPy6V7GifZAqKGdBayW-28" style="edgeStyle=none;rounded=0;orthogonalLoop=1;jettySize=auto;html=1;exitX=0.5;exitY=1;exitDx=0;exitDy=0;startArrow=block;startFill=0;endArrow=oval;endFill=1;strokeColor=#000000;" parent="1" source="UBPy6V7GifZAqKGdBayW-24" target="UBPy6V7GifZAqKGdBayW-25" edge="1">
          <mxGeometry relative="1" as="geometry" />
        </mxCell>
        <mxCell id="UBPy6V7GifZAqKGdBayW-24" value="" style="rounded=0;whiteSpace=wrap;html=1;fillColor=#fff2cc;opacity=50;align=left;strokeColor=#d6b656;" parent="1" vertex="1">
          <mxGeometry x="107" y="101" width="438" height="549" as="geometry" />
        </mxCell>
        <mxCell id="UBPy6V7GifZAqKGdBayW-4" style="edgeStyle=none;rounded=0;orthogonalLoop=1;jettySize=auto;html=1;exitX=1;exitY=0.5;exitDx=0;exitDy=0;startArrow=block;startFill=0;endArrow=oval;endFill=1;" parent="1" source="UBPy6V7GifZAqKGdBayW-5" target="UBPy6V7GifZAqKGdBayW-2" edge="1">
          <mxGeometry relative="1" as="geometry" />
        </mxCell>
        <mxCell id="UBPy6V7GifZAqKGdBayW-22" style="edgeStyle=none;rounded=0;orthogonalLoop=1;jettySize=auto;html=1;exitX=0.5;exitY=1;exitDx=0;exitDy=0;entryX=0.5;entryY=0;entryDx=0;entryDy=0;startArrow=block;startFill=0;endArrow=oval;endFill=1;" parent="1" source="UBPy6V7GifZAqKGdBayW-1" target="UBPy6V7GifZAqKGdBayW-5" edge="1">
          <mxGeometry relative="1" as="geometry" />
        </mxCell>
        <mxCell id="UBPy6V7GifZAqKGdBayW-1" value="Standard" style="rounded=1;whiteSpace=wrap;html=1;fillColor=#dae8fc;strokeColor=#6c8ebf;" parent="1" vertex="1">
          <mxGeometry x="173" y="127" width="120" height="60" as="geometry" />
        </mxCell>
        <mxCell id="UBPy6V7GifZAqKGdBayW-2" value="eslint-plugin-wk" style="ellipse;whiteSpace=wrap;html=1;fillColor=#f8cecc;strokeColor=#b85450;" parent="1" vertex="1">
          <mxGeometry x="412" y="229" width="120" height="80" as="geometry" />
        </mxCell>
        <mxCell id="UBPy6V7GifZAqKGdBayW-11" style="edgeStyle=none;rounded=0;orthogonalLoop=1;jettySize=auto;html=1;exitX=0.5;exitY=1;exitDx=0;exitDy=0;entryX=0.5;entryY=0;entryDx=0;entryDy=0;startArrow=block;startFill=0;endArrow=oval;endFill=1;" parent="1" source="UBPy6V7GifZAqKGdBayW-5" target="UBPy6V7GifZAqKGdBayW-10" edge="1">
          <mxGeometry relative="1" as="geometry" />
        </mxCell>
        <mxCell id="UBPy6V7GifZAqKGdBayW-17" style="edgeStyle=none;rounded=0;orthogonalLoop=1;jettySize=auto;html=1;exitX=0.5;exitY=1;exitDx=0;exitDy=0;entryX=0.5;entryY=0;entryDx=0;entryDy=0;startArrow=block;startFill=0;endArrow=oval;endFill=1;strokeColor=#B3B3B3;" parent="1" source="UBPy6V7GifZAqKGdBayW-5" target="UBPy6V7GifZAqKGdBayW-13" edge="1">
          <mxGeometry relative="1" as="geometry" />
        </mxCell>
        <mxCell id="UBPy6V7GifZAqKGdBayW-19" style="edgeStyle=none;rounded=0;orthogonalLoop=1;jettySize=auto;html=1;exitX=0.5;exitY=1;exitDx=0;exitDy=0;entryX=0.5;entryY=0;entryDx=0;entryDy=0;startArrow=block;startFill=0;endArrow=oval;endFill=1;strokeColor=#B3B3B3;" parent="1" source="UBPy6V7GifZAqKGdBayW-5" target="UBPy6V7GifZAqKGdBayW-12" edge="1">
          <mxGeometry relative="1" as="geometry" />
        </mxCell>
        <mxCell id="UBPy6V7GifZAqKGdBayW-5" value="wk" style="rounded=1;whiteSpace=wrap;html=1;fillColor=#d5e8d4;strokeColor=#82b366;" parent="1" vertex="1">
          <mxGeometry x="265" y="239" width="120" height="60" as="geometry" />
        </mxCell>
        <mxCell id="UBPy6V7GifZAqKGdBayW-9" style="edgeStyle=none;rounded=0;orthogonalLoop=1;jettySize=auto;html=1;exitX=0.5;exitY=1;exitDx=0;exitDy=0;entryX=0.5;entryY=0;entryDx=0;entryDy=0;startArrow=block;startFill=0;endArrow=oval;endFill=1;" parent="1" source="UBPy6V7GifZAqKGdBayW-8" target="UBPy6V7GifZAqKGdBayW-5" edge="1">
          <mxGeometry relative="1" as="geometry" />
        </mxCell>
        <mxCell id="UBPy6V7GifZAqKGdBayW-8" value="prettier" style="rounded=1;whiteSpace=wrap;html=1;fillColor=#dae8fc;strokeColor=#6c8ebf;" parent="1" vertex="1">
          <mxGeometry x="370" y="127" width="120" height="60" as="geometry" />
        </mxCell>
        <mxCell id="UBPy6V7GifZAqKGdBayW-18" style="edgeStyle=none;rounded=0;orthogonalLoop=1;jettySize=auto;html=1;exitX=0.5;exitY=1;exitDx=0;exitDy=0;entryX=0.5;entryY=0;entryDx=0;entryDy=0;startArrow=block;startFill=0;endArrow=oval;endFill=1;strokeColor=#B3B3B3;" parent="1" source="UBPy6V7GifZAqKGdBayW-10" target="UBPy6V7GifZAqKGdBayW-12" edge="1">
          <mxGeometry relative="1" as="geometry" />
        </mxCell>
        <mxCell id="UBPy6V7GifZAqKGdBayW-20" style="edgeStyle=none;rounded=0;orthogonalLoop=1;jettySize=auto;html=1;exitX=0.5;exitY=1;exitDx=0;exitDy=0;entryX=0.5;entryY=0;entryDx=0;entryDy=0;startArrow=block;startFill=0;endArrow=oval;endFill=1;strokeColor=#B3B3B3;" parent="1" source="UBPy6V7GifZAqKGdBayW-10" target="UBPy6V7GifZAqKGdBayW-13" edge="1">
          <mxGeometry relative="1" as="geometry" />
        </mxCell>
        <mxCell id="UBPy6V7GifZAqKGdBayW-10" value="wkts" style="rounded=1;whiteSpace=wrap;html=1;fillColor=#d5e8d4;strokeColor=#82b366;" parent="1" vertex="1">
          <mxGeometry x="123" y="344" width="120" height="60" as="geometry" />
        </mxCell>
        <mxCell id="UBPy6V7GifZAqKGdBayW-16" style="edgeStyle=none;rounded=0;orthogonalLoop=1;jettySize=auto;html=1;exitX=0.5;exitY=1;exitDx=0;exitDy=0;startArrow=block;startFill=0;endArrow=oval;endFill=1;" parent="1" source="UBPy6V7GifZAqKGdBayW-12" target="UBPy6V7GifZAqKGdBayW-15" edge="1">
          <mxGeometry relative="1" as="geometry" />
        </mxCell>
        <mxCell id="UBPy6V7GifZAqKGdBayW-12" value="wkreact" style="rounded=1;whiteSpace=wrap;html=1;" parent="1" vertex="1">
          <mxGeometry x="231" y="464" width="120" height="60" as="geometry" />
        </mxCell>
        <mxCell id="UBPy6V7GifZAqKGdBayW-13" value="wkvue" style="rounded=1;whiteSpace=wrap;html=1;" parent="1" vertex="1">
          <mxGeometry x="398" y="464" width="120" height="60" as="geometry" />
        </mxCell>
        <mxCell id="UBPy6V7GifZAqKGdBayW-15" value="wktaro" style="rounded=1;whiteSpace=wrap;html=1;" parent="1" vertex="1">
          <mxGeometry x="231" y="576" width="120" height="60" as="geometry" />
        </mxCell>
        <mxCell id="UBPy6V7GifZAqKGdBayW-21" value="根据项目类型选择继承 wk(Javascript)或 wkts(Typescript)" style="text;html=1;strokeColor=none;align=left;verticalAlign=middle;whiteSpace=wrap;rounded=0;fillColor=#ffffff;opacity=50;" parent="1" vertex="1">
          <mxGeometry x="555" y="392" width="208" height="20" as="geometry" />
        </mxCell>
        <mxCell id="UBPy6V7GifZAqKGdBayW-23" value="基于社区流行的 standard 和 prettier 代码规范" style="text;html=1;strokeColor=none;align=left;verticalAlign=middle;whiteSpace=wrap;rounded=0;fillColor=#ffffff;opacity=50;" parent="1" vertex="1">
          <mxGeometry x="551" y="147" width="247" height="20" as="geometry" />
        </mxCell>
        <mxCell id="UBPy6V7GifZAqKGdBayW-25" value="wkloose" style="rounded=1;whiteSpace=wrap;html=1;" parent="1" vertex="1">
          <mxGeometry x="266" y="695" width="120" height="60" as="geometry" />
        </mxCell>
        <mxCell id="UBPy6V7GifZAqKGdBayW-29" value="对于旧项目，可以组合 wkloose, 规则相对宽松，方便渐进式迁移" style="text;html=1;strokeColor=none;align=left;verticalAlign=middle;whiteSpace=wrap;rounded=0;fillColor=#ffffff;opacity=50;" parent="1" vertex="1">
          <mxGeometry x="561" y="715" width="208" height="20" as="geometry" />
        </mxCell>
      </root>
    </mxGraphModel>
  </diagram>
  <diagram id="HL4pfGQGwu_-rd1rFJXY" name="Page-2">
    <mxGraphModel dx="786" dy="562" grid="0" gridSize="10" guides="1" tooltips="1" connect="1" arrows="1" fold="1" page="0" pageScale="1" pageWidth="827" pageHeight="1169" math="0" shadow="0">
      <root>
        <mxCell id="IOYDJ3h90ctRUAYfY1ra-0" />
        <mxCell id="IOYDJ3h90ctRUAYfY1ra-1" parent="IOYDJ3h90ctRUAYfY1ra-0" />
        <mxCell id="IOYDJ3h90ctRUAYfY1ra-3" value="" style="endArrow=none;html=1;" edge="1" parent="IOYDJ3h90ctRUAYfY1ra-1" source="IOYDJ3h90ctRUAYfY1ra-2">
          <mxGeometry width="50" height="50" relative="1" as="geometry">
            <mxPoint x="351" y="402" as="sourcePoint" />
            <mxPoint x="351" y="65" as="targetPoint" />
          </mxGeometry>
        </mxCell>
        <mxCell id="IOYDJ3h90ctRUAYfY1ra-2" value="" style="ellipse;whiteSpace=wrap;html=1;aspect=fixed;fillColor=#dae8fc;strokeColor=#6c8ebf;" vertex="1" parent="IOYDJ3h90ctRUAYfY1ra-1">
          <mxGeometry x="337" y="102" width="28" height="28" as="geometry" />
        </mxCell>
        <mxCell id="IOYDJ3h90ctRUAYfY1ra-4" value="" style="endArrow=none;html=1;" edge="1" parent="IOYDJ3h90ctRUAYfY1ra-1" source="IOYDJ3h90ctRUAYfY1ra-5" target="IOYDJ3h90ctRUAYfY1ra-2">
          <mxGeometry width="50" height="50" relative="1" as="geometry">
            <mxPoint x="351" y="402" as="sourcePoint" />
            <mxPoint x="351" y="65" as="targetPoint" />
          </mxGeometry>
        </mxCell>
        <mxCell id="IOYDJ3h90ctRUAYfY1ra-5" value="" style="ellipse;whiteSpace=wrap;html=1;aspect=fixed;fillColor=#dae8fc;strokeColor=#6c8ebf;" vertex="1" parent="IOYDJ3h90ctRUAYfY1ra-1">
          <mxGeometry x="337" y="180" width="28" height="28" as="geometry" />
        </mxCell>
        <mxCell id="IOYDJ3h90ctRUAYfY1ra-6" value="" style="endArrow=none;html=1;" edge="1" parent="IOYDJ3h90ctRUAYfY1ra-1" source="IOYDJ3h90ctRUAYfY1ra-7" target="IOYDJ3h90ctRUAYfY1ra-5">
          <mxGeometry width="50" height="50" relative="1" as="geometry">
            <mxPoint x="351" y="402" as="sourcePoint" />
            <mxPoint x="351" y="130" as="targetPoint" />
          </mxGeometry>
        </mxCell>
        <mxCell id="IOYDJ3h90ctRUAYfY1ra-7" value="" style="ellipse;whiteSpace=wrap;html=1;aspect=fixed;fillColor=#dae8fc;strokeColor=#6c8ebf;" vertex="1" parent="IOYDJ3h90ctRUAYfY1ra-1">
          <mxGeometry x="337" y="239" width="28" height="28" as="geometry" />
        </mxCell>
        <mxCell id="IOYDJ3h90ctRUAYfY1ra-8" value="" style="endArrow=none;html=1;" edge="1" parent="IOYDJ3h90ctRUAYfY1ra-1" source="IOYDJ3h90ctRUAYfY1ra-9" target="IOYDJ3h90ctRUAYfY1ra-7">
          <mxGeometry width="50" height="50" relative="1" as="geometry">
            <mxPoint x="351" y="402" as="sourcePoint" />
            <mxPoint x="351" y="195" as="targetPoint" />
          </mxGeometry>
        </mxCell>
        <mxCell id="IOYDJ3h90ctRUAYfY1ra-9" value="" style="ellipse;whiteSpace=wrap;html=1;aspect=fixed;fillColor=#d5e8d4;strokeColor=#82b366;" vertex="1" parent="IOYDJ3h90ctRUAYfY1ra-1">
          <mxGeometry x="337" y="297" width="28" height="28" as="geometry" />
        </mxCell>
        <mxCell id="IOYDJ3h90ctRUAYfY1ra-10" value="" style="endArrow=none;html=1;" edge="1" parent="IOYDJ3h90ctRUAYfY1ra-1" source="IOYDJ3h90ctRUAYfY1ra-11" target="IOYDJ3h90ctRUAYfY1ra-9">
          <mxGeometry width="50" height="50" relative="1" as="geometry">
            <mxPoint x="351" y="402" as="sourcePoint" />
            <mxPoint x="351" y="267" as="targetPoint" />
          </mxGeometry>
        </mxCell>
        <mxCell id="IOYDJ3h90ctRUAYfY1ra-11" value="" style="ellipse;whiteSpace=wrap;html=1;aspect=fixed;fillColor=#d5e8d4;strokeColor=#82b366;" vertex="1" parent="IOYDJ3h90ctRUAYfY1ra-1">
          <mxGeometry x="337" y="340" width="28" height="28" as="geometry" />
        </mxCell>
        <mxCell id="IOYDJ3h90ctRUAYfY1ra-12" value="" style="endArrow=none;html=1;" edge="1" parent="IOYDJ3h90ctRUAYfY1ra-1" target="IOYDJ3h90ctRUAYfY1ra-11">
          <mxGeometry width="50" height="50" relative="1" as="geometry">
            <mxPoint x="351" y="402" as="sourcePoint" />
            <mxPoint x="351" y="325" as="targetPoint" />
          </mxGeometry>
        </mxCell>
        <mxCell id="IOYDJ3h90ctRUAYfY1ra-14" value="" style="shape=flexArrow;endArrow=classic;html=1;" edge="1" parent="IOYDJ3h90ctRUAYfY1ra-1">
          <mxGeometry width="50" height="50" relative="1" as="geometry">
            <mxPoint x="440" y="310.5" as="sourcePoint" />
            <mxPoint x="381" y="310.5" as="targetPoint" />
          </mxGeometry>
        </mxCell>
        <mxCell id="IOYDJ3h90ctRUAYfY1ra-15" value="" style="shape=flexArrow;endArrow=classic;html=1;" edge="1" parent="IOYDJ3h90ctRUAYfY1ra-1">
          <mxGeometry width="50" height="50" relative="1" as="geometry">
            <mxPoint x="438" y="115.5" as="sourcePoint" />
            <mxPoint x="379" y="115.5" as="targetPoint" />
          </mxGeometry>
        </mxCell>
        <mxCell id="IOYDJ3h90ctRUAYfY1ra-16" value="" style="strokeWidth=2;html=1;shape=mxgraph.flowchart.annotation_2;align=left;labelPosition=right;pointerEvents=1;fillColor=#dae8fc;strokeColor=#6c8ebf;" vertex="1" parent="IOYDJ3h90ctRUAYfY1ra-1">
          <mxGeometry x="273" y="116" width="54" height="141" as="geometry" />
        </mxCell>
        <mxCell id="IOYDJ3h90ctRUAYfY1ra-17" value="&lt;font style=&quot;font-size: 14px&quot;&gt;检查范围&lt;/font&gt;" style="text;html=1;align=center;verticalAlign=middle;whiteSpace=wrap;rounded=0;fontStyle=1;fontColor=#00CCCC;" vertex="1" parent="IOYDJ3h90ctRUAYfY1ra-1">
          <mxGeometry x="205" y="173" width="61" height="21" as="geometry" />
        </mxCell>
        <mxCell id="IOYDJ3h90ctRUAYfY1ra-18" value="&lt;span style=&quot;font-size: 14px&quot;&gt;HEAD&lt;/span&gt;" style="text;html=1;align=center;verticalAlign=middle;whiteSpace=wrap;rounded=0;fontStyle=1;fontColor=#00CCCC;" vertex="1" parent="IOYDJ3h90ctRUAYfY1ra-1">
          <mxGeometry x="446" y="105.5" width="61" height="21" as="geometry" />
        </mxCell>
        <mxCell id="IOYDJ3h90ctRUAYfY1ra-19" value="&lt;span style=&quot;font-size: 14px&quot;&gt;上次 push 提交&lt;/span&gt;" style="text;html=1;align=center;verticalAlign=middle;whiteSpace=wrap;rounded=0;fontStyle=1;fontColor=#00CCCC;" vertex="1" parent="IOYDJ3h90ctRUAYfY1ra-1">
          <mxGeometry x="446" y="300.5" width="103" height="21" as="geometry" />
        </mxCell>
      </root>
    </mxGraphModel>
  </diagram>
</mxfile>
